<svg width="35" height="35" viewBox="0 0 35 35" fill="none" xmlns="http://www.w3.org/2000/svg">
<path d="M17.4974 23.3334C19.0445 23.3334 20.5282 22.7188 21.6222 21.6249C22.7161 20.5309 23.3307 19.0472 23.3307 17.5001C23.3307 15.953 22.7161 14.4693 21.6222 13.3753C20.5282 12.2813 19.0445 11.6667 17.4974 11.6667C15.9503 11.6667 14.4666 12.2813 13.3726 13.3753C12.2786 14.4693 11.6641 15.953 11.6641 17.5001C11.6641 19.0472 12.2786 20.5309 13.3726 21.6249C14.4666 22.7188 15.9503 23.3334 17.4974 23.3334Z" stroke="#D62027" stroke-width="1.5" stroke-linecap="round" stroke-linejoin="round"/>
<path d="M4.375 23.3333V11.6667C4.375 9.7328 5.14323 7.87813 6.51068 6.51068C7.87813 5.14323 9.7328 4.375 11.6667 4.375H23.3333C25.2672 4.375 27.1219 5.14323 28.4893 6.51068C29.8568 7.87813 30.625 9.7328 30.625 11.6667V23.3333C30.625 25.2672 29.8568 27.1219 28.4893 28.4893C27.1219 29.8568 25.2672 30.625 23.3333 30.625H11.6667C9.7328 30.625 7.87813 29.8568 6.51068 28.4893C5.14323 27.1219 4.375 25.2672 4.375 23.3333Z" stroke="#D62027" stroke-width="1.5"/>
<path d="M25.5234 9.49383L25.538 9.47778" stroke="#D62027" stroke-width="1.5" stroke-linecap="round" stroke-linejoin="round"/>
</svg>
