<svg width="203" height="42" viewBox="0 0 203 42" fill="none" xmlns="http://www.w3.org/2000/svg">
<path d="M15.4045 3.04321C12.3578 3.04321 9.37949 4.02714 6.84623 5.87057C4.31297 7.714 2.33854 10.3341 1.17261 13.3996C0.0066745 16.4652 -0.298386 19.8384 0.296 23.0927C0.890386 26.347 2.35752 29.3363 4.51188 31.6825C6.66624 34.0288 9.41106 35.6266 12.3992 36.2739C15.3874 36.9213 18.4848 36.589 21.2996 35.3192C24.1144 34.0495 26.5202 31.8992 28.2129 29.1403C29.9056 26.3814 30.809 23.1378 30.809 19.8197C30.809 15.3703 29.186 11.1032 26.2971 7.95695C23.4082 4.81074 19.49 3.04321 15.4045 3.04321ZM21.7859 26.0433C21.5676 26.2812 21.308 26.4696 21.0223 26.5975C20.7366 26.7254 20.4305 26.7902 20.1216 26.7883H8.33609V21.6918H20.1216C20.5841 21.6928 21.036 21.8428 21.4203 22.1231C21.8047 22.4033 22.1042 22.8011 22.2813 23.2665C22.4584 23.7318 22.505 24.2438 22.4153 24.738C22.3256 25.2321 22.1036 25.6863 21.7773 26.0433H21.7859ZM21.7859 17.1995C21.5676 17.4374 21.308 17.6258 21.0223 17.7537C20.7366 17.8816 20.4305 17.9465 20.1216 17.9446H8.33609V12.8512H20.1216C20.5841 12.8513 21.0363 13.0007 21.4209 13.2805C21.8055 13.5603 22.1053 13.958 22.2825 14.4233C22.4597 14.8886 22.5062 15.4007 22.4163 15.8948C22.3264 16.3889 22.104 16.8429 21.7773 17.1995H21.7859Z" fill="#D62027"/>
<path d="M53.7071 9.46698V30.5605C53.7071 33.6535 52.7489 36.1694 50.8325 38.1082C48.9162 40.0471 46.3454 41.0144 43.1202 41.0102C38.544 41.0102 35.2929 39.0996 33.367 35.2782L38.8286 33.1369C39.7254 34.6605 41.2087 35.4233 43.2783 35.4254C44.6198 35.4254 45.6383 34.9808 46.3339 34.0918C47.0296 33.2027 47.3803 32.0381 47.386 30.5981V28.5038C46.6868 29.3539 45.8268 30.0289 44.8651 30.4823C43.9034 30.9358 42.8629 31.1568 41.8152 31.1303C38.9752 31.1303 36.6267 30.0628 34.7698 27.9277C32.9128 25.7927 31.9844 23.1443 31.9844 19.9824C31.9844 16.6432 32.9061 13.9562 34.7497 11.9213C36.5932 9.88647 38.9484 8.86591 41.8152 8.85965C42.8627 8.83252 43.9031 9.053 44.8648 9.50588C45.8265 9.95877 46.6867 10.6333 47.386 11.483V9.46698H53.7071ZM46.2822 23.6045C47.1254 22.6862 47.546 21.483 47.5441 19.995C47.5422 18.5069 47.1216 17.3027 46.2822 16.3823C45.4409 15.4661 44.3227 15.008 42.9276 15.008C41.5325 15.008 40.4019 15.4661 39.5357 16.3823C39.1002 16.853 38.7595 17.4173 38.5354 18.0393C38.3112 18.6613 38.2084 19.3273 38.2336 19.995C38.2082 20.6619 38.3107 21.3272 38.5344 21.9486C38.7581 22.5701 39.0981 23.134 39.5328 23.6045C40.4009 24.5207 41.5316 24.9788 42.9248 24.9788C44.3179 24.9788 45.4371 24.5207 46.2822 23.6045Z" fill="#D62027"/>
<path d="M57.7023 28.6724C55.8089 26.4623 54.8613 23.7095 54.8594 20.4141C54.8575 17.1187 55.8051 14.369 57.7023 12.1651C58.5769 11.1056 59.6498 10.2623 60.8487 9.69205C62.0476 9.12182 63.3447 8.83786 64.6528 8.85928C67.0425 8.85928 68.9761 9.73374 70.4536 11.4827V9.46661H76.7775V31.3803H70.4536V29.3643C68.9205 31.1153 66.9869 31.9898 64.6528 31.9877C63.344 32.0087 62.0462 31.7237 60.8471 31.1517C59.648 30.5798 58.5756 29.7344 57.7023 28.6724ZM69.2722 24.3492C70.1805 23.3286 70.6337 22.0065 70.6318 20.3828C70.6299 18.7591 70.1767 17.4536 69.2722 16.4665C68.8226 15.9719 68.2844 15.5835 67.6909 15.3255C67.0974 15.0675 66.4615 14.9454 65.8228 14.967C65.1952 14.9459 64.5706 15.0684 63.9893 15.3267C63.408 15.5851 62.883 15.9733 62.4481 16.4665C61.5627 17.4683 61.1201 18.7737 61.1201 20.3828C61.1201 21.9919 61.5627 23.3171 62.4481 24.3586C62.8802 24.8571 63.4043 25.2504 63.9859 25.5126C64.5675 25.7748 65.1935 25.9 65.8228 25.88C66.464 25.9009 67.1021 25.7755 67.6961 25.5119C68.2902 25.2483 68.827 24.8522 69.2722 24.3492Z" fill="#D62027"/>
<path d="M98.2052 12.1655C100.1 14.3694 101.048 17.1191 101.048 20.4145C101.048 23.7099 100.1 26.4627 98.2052 28.6728C97.3325 29.7348 96.2606 30.5804 95.062 31.1523C93.8634 31.7243 92.566 32.0093 91.2575 31.988C88.9176 31.988 86.9841 31.1136 85.4567 29.3647V31.3807H79.1328V0.000244141H85.4567V11.483C86.9342 9.73412 88.8678 8.85966 91.2575 8.85966C92.5652 8.83828 93.8619 9.12227 95.0603 9.69251C96.2588 10.2628 97.3311 11.106 98.2052 12.1655ZM93.4737 24.3495C94.3591 23.329 94.8027 22.0069 94.8046 20.3832C94.8066 18.7595 94.3658 17.454 93.4824 16.4669C93.0475 15.972 92.5216 15.5826 91.9391 15.3242C91.3566 15.0658 90.7306 14.9442 90.1019 14.9673C89.4632 14.9454 88.8272 15.0673 88.2336 15.3253C87.6401 15.5833 87.1019 15.9719 86.6525 16.4669C85.7461 17.4686 85.2929 18.7741 85.2929 20.3832C85.2929 21.9923 85.7461 23.3175 86.6525 24.3589C87.0991 24.8593 87.6364 25.253 88.2302 25.515C88.8241 25.7769 89.4615 25.9014 90.1019 25.8804C90.7315 25.8998 91.3576 25.7733 91.9388 25.5094C92.5201 25.2455 93.0433 24.8502 93.4737 24.3495Z" fill="white"/>
<path d="M103.859 28.6724C101.965 26.4623 101.018 23.7095 101.016 20.4141C101.014 17.1187 101.961 14.369 103.859 12.1651C104.733 11.1056 105.805 10.2624 107.003 9.69213C108.202 9.12189 109.499 8.8379 110.806 8.85928C113.194 8.85928 115.128 9.73374 116.607 11.4827V9.4666H122.931V31.3803H116.607V29.3643C115.074 31.1153 113.14 31.9898 110.806 31.9877C109.498 32.0089 108.2 31.7239 107.002 31.1519C105.803 30.58 104.731 29.7344 103.859 28.6724ZM115.423 24.3492C116.329 23.3286 116.782 22.0065 116.782 20.3828C116.782 18.7591 116.326 17.4536 115.414 16.4665C114.964 15.9725 114.426 15.5845 113.832 15.3265C113.239 15.0686 112.603 14.9462 111.965 14.967C111.337 14.9455 110.713 15.068 110.132 15.3263C109.551 15.5846 109.027 15.9731 108.593 16.4665C107.707 17.4682 107.264 18.7737 107.262 20.3828C107.26 21.9919 107.704 23.3171 108.593 24.3586C109.024 24.8572 109.548 25.2506 110.129 25.5128C110.71 25.775 111.336 25.9002 111.965 25.88C112.607 25.9022 113.247 25.7775 113.843 25.5138C114.438 25.2501 114.977 24.8534 115.423 24.3492Z" fill="white"/>
<path d="M126.963 29.9845C125.112 28.6467 123.924 27.048 123.398 25.1885L129.027 23.3822C129.371 24.3317 129.981 25.1397 130.769 25.6925C131.639 26.2977 132.657 26.6052 133.689 26.5753C134.328 26.6066 134.962 26.4429 135.52 26.1026C135.983 25.7896 136.216 25.4139 136.216 24.9788C136.216 24.265 135.585 23.7057 134.324 23.3008L129.507 21.7355C126.115 20.619 124.419 18.5831 124.419 15.6279C124.419 13.712 125.241 12.1029 126.885 10.8006C128.529 9.49827 130.496 8.84816 132.784 8.85025C134.767 8.8021 136.727 9.31902 138.47 10.3498C140.008 11.2375 141.22 12.6744 141.902 14.4195L136.368 16.1413C135.973 15.4936 135.433 14.9654 134.8 14.6058C134.167 14.2462 133.46 14.0669 132.746 14.0845C132.223 14.0694 131.705 14.2032 131.243 14.4727C130.818 14.7325 130.605 15.055 130.605 15.4494C130.605 16.0223 130.993 16.4543 131.755 16.7486L136.4 18.1573C137.183 18.3863 137.952 18.6728 138.699 19.0151C139.359 19.3393 139.985 19.738 140.568 20.2047C141.179 20.6686 141.659 21.308 141.956 22.0517C142.274 22.8854 142.429 23.7821 142.41 24.6845C142.41 26.8133 141.575 28.5622 139.904 29.9313C138.233 31.3004 136.081 31.9859 133.448 31.988C131.151 32.0421 128.892 31.3441 126.963 29.9845Z" fill="white"/>
<path d="M144.877 29.9845C143.026 28.6467 141.838 27.048 141.312 25.1885L146.938 23.3822C147.284 24.3319 147.894 25.1398 148.683 25.6925C149.554 26.2977 150.571 26.6051 151.603 26.5753C152.242 26.6066 152.876 26.4429 153.434 26.1026C153.897 25.7896 154.127 25.4139 154.127 24.9788C154.127 24.265 153.498 23.7057 152.239 23.3008L147.421 21.7355C144.029 20.619 142.333 18.5831 142.333 15.6279C142.333 13.712 143.155 12.1029 144.799 10.8006C146.444 9.49827 148.41 8.84816 150.698 8.85025C152.681 8.8021 154.641 9.31902 156.384 10.3498C157.922 11.2375 159.133 12.6744 159.813 14.4195L154.282 16.1413C153.887 15.4936 153.347 14.9654 152.714 14.6058C152.081 14.2462 151.374 14.0669 150.66 14.0845C150.137 14.0691 149.619 14.2029 149.157 14.4727C148.732 14.7325 148.519 15.055 148.519 15.4494C148.519 16.0213 148.902 16.4543 149.669 16.7486L154.311 18.1573C155.099 18.3852 155.873 18.6718 156.625 19.0151C157.281 19.3329 157.904 19.7242 158.485 20.1828C159.096 20.6467 159.576 21.2861 159.873 22.0298C160.19 22.8638 160.344 23.7604 160.325 24.6626C160.325 26.7913 159.49 28.5403 157.821 29.9094C156.152 31.2784 154 31.964 151.365 31.9661C149.069 32.0273 146.809 31.337 144.877 29.9845Z" fill="white"/>
<path d="M163.197 28.8019C161.154 26.6668 160.133 23.8921 160.133 20.4778C160.133 17.1218 161.116 14.3482 163.082 12.1568C165.048 9.96543 167.618 8.86661 170.791 8.86035C174.028 8.86035 176.594 9.93413 178.489 12.0817C180.385 14.2292 181.332 16.9423 181.332 20.2211C181.34 20.9799 181.289 21.738 181.18 22.4876H166.302C166.771 25.0045 168.443 26.262 171.318 26.2599C173.234 26.2599 174.575 25.5179 175.342 24.0341L181.028 25.8404C180.399 27.4223 179.214 28.8426 177.472 30.101C175.73 31.3595 173.639 31.9856 171.2 31.9794C167.907 31.9856 165.24 30.9265 163.197 28.8019ZM175.187 18.3459C175.133 17.8287 174.985 17.3283 174.751 16.8741C174.518 16.4199 174.204 16.021 173.827 15.7006C172.958 14.9503 171.871 14.5638 170.763 14.6111C169.656 14.5604 168.571 14.9562 167.716 15.7225C166.969 16.3822 166.467 17.3141 166.302 18.3459H175.187Z" fill="white"/>
<path d="M202.997 9.4668L191.028 40.4059H184.612L188.197 30.8546L188.467 30.8139L188.197 30.8546L179.156 9.4668H186.055L191.318 22.8154L196.251 9.4668H202.997Z" fill="white"/>
</svg>
