<svg width="124" height="24" viewBox="0 0 124 24" fill="none" xmlns="http://www.w3.org/2000/svg">
<path d="M9.40948 2.20654C7.54846 2.20654 5.72924 2.7584 4.18186 3.79233C2.63448 4.82625 1.42844 6.29581 0.716258 8.01517C0.00407696 9.73453 -0.182262 11.6265 0.180805 13.4517C0.543872 15.277 1.44004 16.9536 2.75598 18.2695C4.07192 19.5855 5.74852 20.4816 7.57378 20.8447C9.39904 21.2078 11.291 21.0214 13.0103 20.3092C14.7297 19.5971 16.1992 18.391 17.2332 16.8436C18.2671 15.2963 18.819 13.477 18.819 11.616C18.819 9.12047 17.8276 6.72713 16.063 4.96252C14.2984 3.1979 11.905 2.20654 9.40948 2.20654ZM13.3074 15.1066C13.174 15.2401 13.0155 15.3457 12.841 15.4175C12.6665 15.4892 12.4795 15.5256 12.2908 15.5245H5.0919V12.666H12.2908C12.5733 12.6666 12.8493 12.7507 13.0841 12.9079C13.3189 13.065 13.5019 13.2882 13.61 13.5492C13.7182 13.8102 13.7466 14.0973 13.6919 14.3745C13.6371 14.6517 13.5015 14.9064 13.3022 15.1066H13.3074ZM13.3074 10.1464C13.174 10.2799 13.0155 10.3855 12.841 10.4572C12.6665 10.529 12.4795 10.5654 12.2908 10.5643H5.0919V7.70755H12.2908C12.5733 7.70761 12.8495 7.7914 13.0844 7.94834C13.3194 8.10528 13.5025 8.32833 13.6107 8.58931C13.7189 8.85029 13.7474 9.13749 13.6925 9.41463C13.6376 9.69177 13.5017 9.94641 13.3022 10.1464H13.3074Z" fill="#E30008"/>
<path d="M32.8039 5.80868V17.6394C32.8039 19.3742 32.2187 20.7853 31.0481 21.8727C29.8776 22.9602 28.3073 23.5027 26.3372 23.5004C23.542 23.5004 21.5561 22.4288 20.3797 20.2855L23.7158 19.0845C24.2636 19.939 25.1696 20.3668 26.4338 20.368C27.2532 20.368 27.8753 20.1187 28.3002 19.62C28.7252 19.1214 28.9394 18.4682 28.9429 17.6605V16.4859C28.5158 16.9627 27.9905 17.3413 27.403 17.5956C26.8156 17.8499 26.18 17.9739 25.5401 17.959C23.8053 17.959 22.3708 17.3603 21.2366 16.1628C20.1023 14.9653 19.5352 13.4799 19.5352 11.7065C19.5352 9.83362 20.0982 8.32654 21.2243 7.18525C22.3503 6.04396 23.7889 5.47156 25.5401 5.46805C26.1799 5.45283 26.8154 5.57649 27.4029 5.8305C27.9903 6.08451 28.5157 6.46284 28.9429 6.93943V5.80868H32.8039ZM28.2686 13.738C28.7837 13.223 29.0406 12.5481 29.0394 11.7135C29.0383 10.8789 28.7813 10.2035 28.2686 9.6873C27.7548 9.17343 27.0718 8.91649 26.2196 8.91649C25.3674 8.91649 24.6768 9.17343 24.1477 9.6873C23.8817 9.9513 23.6736 10.2678 23.5367 10.6167C23.3997 10.9655 23.3369 11.3391 23.3523 11.7135C23.3369 12.0876 23.3994 12.4607 23.5361 12.8093C23.6727 13.1578 23.8804 13.4741 24.146 13.738C24.6762 14.2519 25.3668 14.5088 26.2178 14.5088C27.0688 14.5088 27.7524 14.2519 28.2686 13.738Z" fill="#E30008"/>
<path d="M35.2484 16.581C34.0919 15.3414 33.513 13.7975 33.5118 11.9492C33.5107 10.1009 34.0895 8.55866 35.2484 7.32256C35.7826 6.72827 36.4379 6.25531 37.1703 5.93548C37.9026 5.61566 38.6949 5.45639 39.4939 5.46841C40.9536 5.46841 42.1347 5.95887 43.0372 6.93979V5.80904H46.9V18.0998H43.0372V16.9691C42.1008 17.9512 40.9197 18.4416 39.4939 18.4405C38.6944 18.4523 37.9017 18.2924 37.1693 17.9716C36.4369 17.6508 35.7818 17.1766 35.2484 16.581ZM42.3156 14.1562C42.8704 13.5838 43.1472 12.8423 43.1461 11.9316C43.1449 11.0209 42.8681 10.2887 42.3156 9.73507C42.041 9.45765 41.7122 9.2398 41.3497 9.0951C40.9871 8.9504 40.5987 8.88195 40.2086 8.89402C39.8253 8.8822 39.4437 8.95095 39.0887 9.09582C38.7336 9.2407 38.4129 9.45847 38.1472 9.73507C37.6064 10.2969 37.336 11.0291 37.336 11.9316C37.336 12.8341 37.6064 13.5774 38.1472 14.1615C38.4112 14.4411 38.7313 14.6617 39.0866 14.8088C39.4418 14.9559 39.8242 15.0261 40.2086 15.0148C40.6002 15.0266 40.99 14.9563 41.3529 14.8084C41.7157 14.6605 42.0437 14.4384 42.3156 14.1562Z" fill="#E30008"/>
<path d="M59.9862 7.32266C61.1439 8.55876 61.7227 10.101 61.7227 11.9493C61.7227 13.7976 61.1439 15.3415 59.9862 16.5811C59.4532 17.1768 58.7984 17.651 58.0663 17.9718C57.3341 18.2926 56.5416 18.4525 55.7424 18.4406C54.3131 18.4406 53.1321 17.9501 52.1991 16.9692V18.0999H48.3363V0.499512H52.1991V6.93989C53.1016 5.95896 54.2827 5.4685 55.7424 5.4685C56.5412 5.45651 57.3332 5.6158 58.0653 5.93563C58.7973 6.25546 59.4523 6.72842 59.9862 7.32266ZM57.0961 14.1563C57.6369 13.5839 57.9079 12.8424 57.9091 11.9317C57.9102 11.021 57.641 10.2888 57.1014 9.73516C56.8358 9.45759 56.5145 9.2392 56.1587 9.09427C55.8029 8.94934 55.4205 8.88114 55.0365 8.89412C54.6464 8.88183 54.2579 8.95018 53.8953 9.0949C53.5328 9.23961 53.204 9.45758 52.9295 9.73516C52.3759 10.297 52.099 11.0292 52.099 11.9317C52.099 12.8342 52.3759 13.5775 52.9295 14.1616C53.2023 14.4423 53.5305 14.6631 53.8932 14.81C54.256 14.9569 54.6454 15.0267 55.0365 15.0149C55.4211 15.0258 55.8035 14.9549 56.1586 14.8069C56.5136 14.6589 56.8332 14.4371 57.0961 14.1563Z" fill="white"/>
<path d="M63.4379 16.581C62.2814 15.3414 61.7026 13.7975 61.7014 11.9492C61.7002 10.1009 62.2791 8.55866 63.4379 7.32256C63.9718 6.72832 64.6269 6.25536 65.3589 5.93553C66.0909 5.6157 66.883 5.45641 67.6818 5.4684C69.1403 5.4684 70.3214 5.95886 71.225 6.93979V5.80903H75.0878V18.0998H71.225V16.9691C70.2886 17.9512 69.1075 18.4416 67.6818 18.4405C66.8825 18.4524 66.09 18.2925 65.3579 17.9717C64.6257 17.6509 63.971 17.1767 63.4379 16.581ZM70.5016 14.1562C71.0553 13.5838 71.3321 12.8423 71.3321 11.9316C71.3321 11.0209 71.0535 10.2887 70.4964 9.73506C70.2215 9.45799 69.8927 9.24037 69.5302 9.09569C69.1678 8.95101 68.7794 8.88237 68.3894 8.89402C68.0063 8.88201 67.625 8.95068 67.2702 9.09557C66.9153 9.24046 66.5949 9.45834 66.3298 9.73506C65.789 10.2969 65.518 11.0291 65.5168 11.9316C65.5157 12.8341 65.7866 13.5774 66.3298 14.1615C66.5933 14.4412 66.9131 14.6618 67.2681 14.8089C67.6231 14.956 68.0053 15.0262 68.3894 15.0148C68.7819 15.0273 69.1727 14.9574 69.5365 14.8095C69.9003 14.6616 70.2291 14.439 70.5016 14.1562Z" fill="white"/>
<path d="M77.5497 17.3172C76.4189 16.5669 75.6932 15.6703 75.3724 14.6273L78.8103 13.6142C79.0209 14.1467 79.393 14.5999 79.8744 14.91C80.4063 15.2494 81.0276 15.4219 81.6583 15.4051C82.0485 15.4227 82.4359 15.3309 82.7768 15.14C83.0595 14.9644 83.2017 14.7537 83.2017 14.5097C83.2017 14.1093 82.8166 13.7956 82.0463 13.5685L79.1036 12.6906C77.0317 12.0644 75.9958 10.9225 75.9958 9.26501C75.9958 8.19044 76.4979 7.28795 77.5023 6.55752C78.5066 5.8271 79.7076 5.46247 81.1052 5.46364C82.3164 5.43664 83.5136 5.72656 84.5782 6.30468C85.5182 6.80258 86.2583 7.60848 86.6747 8.58726L83.2947 9.55296C83.0532 9.18971 82.7237 8.89345 82.3369 8.69176C81.9501 8.49006 81.5185 8.38949 81.0824 8.39939C80.7626 8.39089 80.4461 8.46594 80.1641 8.61711C79.9042 8.76284 79.7743 8.94369 79.7743 9.16493C79.7743 9.48624 80.0113 9.72855 80.4766 9.89359L83.314 10.6837C83.7926 10.8121 84.2619 10.9729 84.7187 11.1648C85.1215 11.3466 85.504 11.5703 85.86 11.832C86.2331 12.0922 86.5267 12.4508 86.7081 12.868C86.9021 13.3356 86.9966 13.8385 86.9855 14.3446C86.9855 15.5386 86.4751 16.5195 85.4544 17.2874C84.4337 18.0553 83.1192 18.4398 81.5108 18.441C80.1077 18.4713 78.7278 18.0798 77.5497 17.3172Z" fill="white"/>
<path d="M88.4936 17.3172C87.3629 16.5669 86.6371 15.6703 86.3164 14.6273L89.7526 13.6142C89.9637 14.1469 90.3364 14.6 90.8183 14.91C91.3502 15.2494 91.9715 15.4219 92.6023 15.4051C92.9925 15.4227 93.3799 15.3309 93.7207 15.14C94.0034 14.9644 94.1439 14.7537 94.1439 14.5097C94.1439 14.1093 93.7594 13.7956 92.9903 13.5685L90.0475 12.6906C87.9757 12.0644 86.9397 10.9225 86.9397 9.26501C86.9397 8.19044 87.4419 7.28795 88.4462 6.55752C89.4506 5.8271 90.6515 5.46247 92.0492 5.46364C93.2604 5.43664 94.4576 5.72656 95.5222 6.30468C96.4617 6.80256 97.2014 7.60852 97.6169 8.58726L94.2387 9.55296C93.9971 9.18971 93.6676 8.89345 93.2808 8.69176C92.894 8.49006 92.4625 8.38949 92.0264 8.39938C91.7065 8.39073 91.39 8.46578 91.1081 8.61711C90.8482 8.76284 90.7183 8.94369 90.7183 9.16492C90.7183 9.48566 90.9524 9.72855 91.4206 9.89359L94.2563 10.6837C94.7379 10.8115 95.2101 10.9723 95.6697 11.1648C96.0701 11.3431 96.4508 11.5625 96.8057 11.8197C97.1788 12.0799 97.4724 12.4385 97.6538 12.8557C97.8472 13.3234 97.9411 13.8263 97.9294 14.3323C97.9294 15.5263 97.4197 16.5072 96.4001 17.2751C95.3806 18.043 94.066 18.4275 92.4565 18.4287C91.0541 18.463 89.6737 18.0758 88.4936 17.3172Z" fill="white"/>
<path d="M99.6873 16.6529C98.4395 15.4554 97.8156 13.8992 97.8156 11.9841C97.8156 10.1019 98.416 8.54623 99.617 7.31715C100.818 6.08807 102.388 5.47177 104.326 5.46826C106.303 5.46826 107.871 6.07051 109.028 7.27501C110.186 8.47951 110.765 10.0012 110.765 11.8402C110.769 12.2658 110.738 12.691 110.672 13.1114H101.584C101.87 14.5231 102.892 15.2283 104.647 15.2271C105.818 15.2271 106.637 14.811 107.106 13.9788L110.579 14.9919C110.195 15.8791 109.471 16.6757 108.407 17.3816C107.343 18.0874 106.066 18.4386 104.575 18.435C102.564 18.4386 100.935 17.8445 99.6873 16.6529ZM107.011 10.7884C106.978 10.4983 106.888 10.2177 106.745 9.96296C106.602 9.70821 106.41 9.48445 106.18 9.30474C105.649 8.88391 104.985 8.66714 104.309 8.69372C103.633 8.66528 102.97 8.88722 102.447 9.31704C101.991 9.68706 101.684 10.2097 101.584 10.7884H107.011Z" fill="white"/>
<path d="M124 5.80884L116.689 23.1617H112.77L114.959 17.8047L115.124 17.7818L114.959 17.8047L109.437 5.80884H113.651L116.866 13.2957L119.879 5.80884H124Z" fill="white"/>
</svg>
